<svg width="800" height="600" viewBox="0 0 800 600" xmlns="http://www.w3.org/2000/svg" font-family="Poppins, Arial, sans-serif">
  <rect width="800" height="600" fill="#1A1A4E"/>
  <rect x="40" y="40" width="720" height="520" rx="14" fill="#12123A"/>

  <!-- Browser chrome -->
  <circle cx="70" cy="66" r="5" fill="#F97066"/>
  <circle cx="88" cy="66" r="5" fill="#F5C451"/>
  <circle cx="106" cy="66" r="5" fill="#4ADE80"/>
  <rect x="140" y="56" width="280" height="20" rx="10" fill="#20204E"/>
  <text x="152" y="70" fill="#8B87B8" font-size="11">app.ticketingcrm.io/dashboard</text>
  <rect x="40" y="90" width="720" height="1" fill="#2A2A5C"/>

  <!-- Sidebar -->
  <rect x="40" y="91" width="150" height="469" fill="#15153F"/>
  <rect x="24" y="112" width="10" height="10" fill="none"/>
  <g font-size="11" fill="#E8E6FF">
    <rect x="60" y="116" width="110" height="30" rx="6" fill="#5B4FE8"/>
    <text x="76" y="135">Dashboard</text>
    <text x="76" y="176" fill="#9490BF">My leads</text>
    <text x="76" y="210" fill="#9490BF">Follow-ups</text>
    <text x="76" y="244" fill="#9490BF">Bookings</text>
    <text x="76" y="278" fill="#9490BF">Agents</text>
    <text x="76" y="312" fill="#9490BF">Reports</text>
  </g>

  <!-- KPI cards -->
  <g>
    <rect x="210" y="112" width="122" height="72" rx="10" fill="#20204E"/>
    <text x="226" y="140" fill="#8B87B8" font-size="10">TOTAL LEADS</text>
    <text x="226" y="166" fill="#FFFFFF" font-size="22" font-weight="700">1,248</text>

    <rect x="344" y="112" width="122" height="72" rx="10" fill="#20204E"/>
    <text x="360" y="140" fill="#8B87B8" font-size="10">FOLLOW-UPS</text>
    <text x="360" y="166" fill="#FFFFFF" font-size="22" font-weight="700">86</text>

    <rect x="478" y="112" width="122" height="72" rx="10" fill="#20204E"/>
    <text x="494" y="140" fill="#8B87B8" font-size="10">CONVERSIONS</text>
    <text x="494" y="166" fill="#4ADE80" font-size="22" font-weight="700">312</text>

    <rect x="612" y="112" width="128" height="72" rx="10" fill="#20204E"/>
    <text x="628" y="140" fill="#8B87B8" font-size="10">VS TARGET</text>
    <text x="628" y="166" fill="#5B4FE8" font-size="22" font-weight="700">104%</text>
  </g>

  <!-- Mini bar chart -->
  <rect x="210" y="200" width="270" height="130" rx="10" fill="#20204E"/>
  <text x="226" y="220" fill="#8B87B8" font-size="10">CONVERSIONS THIS MONTH</text>
  <g fill="#5B4FE8">
    <rect x="230" y="270" width="18" height="40" rx="3"/>
    <rect x="258" y="250" width="18" height="60" rx="3"/>
    <rect x="286" y="230" width="18" height="80" rx="3"/>
    <rect x="314" y="240" width="18" height="70" rx="3"/>
    <rect x="342" y="210" width="18" height="100" rx="3"/>
    <rect x="370" y="222" width="18" height="88" rx="3" fill="#8B7FF0"/>
    <rect x="398" y="200" width="18" height="110" rx="3" fill="#8B7FF0"/>
    <rect x="426" y="216" width="18" height="94" rx="3" fill="#8B7FF0"/>
  </g>

  <!-- Channel donut-ish summary -->
  <rect x="496" y="200" width="244" height="130" rx="10" fill="#20204E"/>
  <text x="512" y="220" fill="#8B87B8" font-size="10">LEADS BY CHANNEL</text>
  <circle cx="556" cy="270" r="34" fill="none" stroke="#2A2A5C" stroke-width="14"/>
  <circle cx="556" cy="270" r="34" fill="none" stroke="#5B4FE8" stroke-width="14" stroke-dasharray="120 214" stroke-linecap="round"/>
  <circle cx="556" cy="270" r="34" fill="none" stroke="#4ADE80" stroke-width="14" stroke-dasharray="60 214" stroke-dashoffset="-120" stroke-linecap="round"/>
  <g font-size="10" fill="#E8E6FF">
    <circle cx="620" cy="252" r="4" fill="#5B4FE8"/><text x="630" y="256">WhatsApp</text>
    <circle cx="620" cy="272" r="4" fill="#4ADE80"/><text x="630" y="276">Facebook</text>
    <circle cx="620" cy="292" r="4" fill="#8B7FF0"/><text x="630" y="296">Phone &amp; walk-in</text>
  </g>

  <!-- Leads table -->
  <rect x="210" y="344" width="530" height="196" rx="10" fill="#20204E"/>
  <text x="226" y="366" fill="#8B87B8" font-size="10">MY LEADS</text>
  <g font-size="11">
    <circle cx="234" cy="392" r="12" fill="#5B4FE8"/><text x="230" y="396" fill="#fff" font-size="9" text-anchor="middle">SK</text>
    <text x="256" y="396" fill="#E8E6FF">Sarah K.</text>
    <text x="420" y="396" fill="#9490BF">Itinerary sent</text>
    <rect x="640" y="384" width="76" height="20" rx="10" fill="#5B4FE8" opacity="0.25"/>
    <text x="652" y="398" fill="#8B7FF0" font-size="9">IN PROGRESS</text>

    <circle cx="234" cy="428" r="12" fill="#4ADE80"/><text x="230" y="432" fill="#0A2E1A" font-size="9" text-anchor="middle">TR</text>
    <text x="256" y="432" fill="#E8E6FF">Tom R.</text>
    <text x="420" y="432" fill="#9490BF">Payment made</text>
    <rect x="640" y="420" width="76" height="20" rx="10" fill="#4ADE80" opacity="0.25"/>
    <text x="654" y="434" fill="#4ADE80" font-size="9">CONVERTED</text>

    <circle cx="234" cy="464" r="12" fill="#F5C451"/><text x="230" y="468" fill="#3A2A00" font-size="9" text-anchor="middle">AL</text>
    <text x="256" y="468" fill="#E8E6FF">Amina L.</text>
    <text x="420" y="468" fill="#9490BF">In progress</text>
    <rect x="640" y="456" width="76" height="20" rx="10" fill="#F5C451" opacity="0.25"/>
    <text x="656" y="470" fill="#F5C451" font-size="9">NEW LEAD</text>

    <circle cx="234" cy="500" r="12" fill="#F97066"/><text x="230" y="504" fill="#fff" font-size="9" text-anchor="middle">JD</text>
    <text x="256" y="504" fill="#E8E6FF">James D.</text>
    <text x="420" y="504" fill="#9490BF">Itinerary sent</text>
    <rect x="640" y="492" width="76" height="20" rx="10" fill="#F97066" opacity="0.25"/>
    <text x="662" y="506" fill="#F97066" font-size="9">LOST</text>
  </g>
</svg>
